<?xml version="1.0" encoding="UTF-8" standalone="no"?>
<!DOCTYPE svg PUBLIC "-//W3C//DTD SVG 1.1//EN" "http://www.w3.org/Graphics/SVG/1.1/DTD/svg11.dtd">
<svg version="1.1" xmlns="http://www.w3.org/2000/svg" xmlns:xlink="http://www.w3.org/1999/xlink" preserveAspectRatio="xMidYMid meet" viewBox="0 0 640 640" width="640" height="640"><defs><path d="M529.61 327.84L529.61 191.5L622.48 191.5L529.98 159.68L529.98 114.45L482.86 114.45L482.86 145.83L322.98 86.36L22.95 191.5L85.72 191.5L85.72 327.84L112.37 327.84L112.37 262.35L147.34 262.35L178.15 316.63L206.59 262.35L243.17 262.35L243.17 327.84L269.54 327.84L269.54 262.35L312.57 262.35C318.58 262.39 322.36 262.47 323.89 262.57C326.19 262.71 345.47 263.21 358.24 273.12C371 283.02 373.78 291.32 374.96 302.19C375.44 306.61 375.75 310.55 374.16 316.87C373.14 320.9 371.29 324.56 368.61 327.84L387.35 327.84C389.21 307.92 394.83 292.5 404.2 281.59C418.26 265.22 436.91 262.35 446.44 262.35C455.97 262.35 476.24 265.22 490.61 281.59C500.19 292.5 505.49 307.92 506.5 327.84" id="a20U1djgQx"></path><path d="M529.9 332.42L529.9 364.62L529.9 468.76L622.48 468.76L529.9 500.39L529.98 550.4L482.86 550.4L482.86 516.9L322.98 578.49L22.95 468.76L85.72 468.76L85.72 332.42L111.87 332.42L111.87 397.92L148.62 397.92L148.62 332.42L177.11 366.83L204.82 332.42L204.82 397.92L243.05 397.92L243.05 332.42L269.73 332.42L269.73 397.92L307.71 397.92L307.71 349.64L321.29 349.64C329.45 349.71 336.04 349.06 341.08 347.68C348.64 345.63 348.93 345.75 354.97 341.76C359.01 339.1 362.44 335.99 365.26 332.42L387.2 332.42C388.43 353.06 394.05 368.84 404.04 379.75C419.04 396.12 439.71 397.92 449.24 397.92C458.78 397.92 475.99 396.12 490.82 379.75C500.71 368.84 505.93 353.06 506.49 332.42L529.9 332.42Z" id="b3pVqKUHU"></path><path d="" id="antPOJ93Q"></path><path d="M323.41 322.24C329.3 321.79 333.34 321.01 335.53 319.9C338.82 318.23 343.52 314.18 343.52 308.09C343.52 301.99 341.51 297.89 334.01 294.27C331.38 293 327.71 292.25 322.99 292.05L308.11 292.05L308.11 322.24L323.41 322.24Z" id="eCWIT8cQz"></path><path d="M467.17 303.05C470.93 308.33 472.84 316.6 472.88 327.84L423.62 327.84C423.49 317.19 425.23 308.92 428.84 303.05C434.26 294.23 443.76 292.05 448.7 292.05C454.5 292.05 461.52 295.11 467.17 303.05Z" id="d1iguwaWw2"></path><path d="M467.17 357.22C470.93 351.93 472.84 343.66 472.88 332.42L423.62 332.42C423.49 343.07 425.23 351.34 428.84 357.22C434.26 366.04 443.76 368.22 448.7 368.22C454.5 368.22 461.52 365.15 467.17 357.22Z" id="b30VNWaYK"></path></defs><g><g><g><use xlink:href="#a20U1djgQx" opacity="1" fill="#03963b" fill-opacity="1"></use></g><g><use xlink:href="#b3pVqKUHU" opacity="1" fill="#d20202" fill-opacity="1"></use></g><g><g><filter id="shadow9669234" x="72.42" y="55.68" width="19" height="19" filterUnits="userSpaceOnUse" primitiveUnits="userSpaceOnUse"><feFlood></feFlood><feComposite in2="SourceAlpha" operator="in"></feComposite><feGaussianBlur stdDeviation="1"></feGaussianBlur><feOffset dx="1" dy="1" result="afterOffset"></feOffset><feFlood flood-color="#000000" flood-opacity="0.5"></feFlood><feComposite in2="afterOffset" operator="in"></feComposite><feMorphology operator="dilate" radius="1"></feMorphology><feComposite in2="SourceAlpha" operator="out"></feComposite></filter><path d="" id="h1Z5hftJB" fill="none" stroke="white" filter="url(#shadow9669234)"></path></g><g><use xlink:href="#antPOJ93Q" opacity="1" fill-opacity="0" stroke="#000000" stroke-width="1" stroke-opacity="1"></use></g></g><g><use xlink:href="#eCWIT8cQz" opacity="1" fill="#03963b" fill-opacity="1"></use></g><g><use xlink:href="#d1iguwaWw2" opacity="1" fill="#03963b" fill-opacity="1"></use></g><g><use xlink:href="#b30VNWaYK" opacity="1" fill="#d20202" fill-opacity="1"></use></g></g></g></svg>